<?xml version="1.0" standalone="no"?>
<!DOCTYPE svg PUBLIC "-//W3C//DTD SVG 20010904//EN"
 "http://www.w3.org/TR/2001/REC-SVG-20010904/DTD/svg10.dtd">
<svg version="1.0" xmlns="http://www.w3.org/2000/svg"
 width="294.000000pt" height="88.000000pt" viewBox="0 0 294.000000 88.000000"
 preserveAspectRatio="xMidYMid meet">

<g transform="translate(0.000000,88.000000) scale(0.100000,-0.100000)"
fill="#000000" stroke="none">
<path d="M140 631 c-6 -11 -10 -90 -10 -185 0 -136 3 -167 16 -180 13 -13 45
-16 193 -16 124 0 181 4 189 12 8 8 12 66 12 194 0 157 -2 183 -16 188 -9 3
-96 6 -194 6 -167 0 -180 -1 -190 -19z m359 -15 c7 -8 11 -27 9 -43 -3 -24 -8
-28 -37 -31 -37 -4 -51 9 -51 45 0 37 56 57 79 29z m-102 -100 c22 -19 28 -32
28 -66 0 -45 -24 -74 -71 -86 -63 -16 -128 58 -103 117 25 62 95 78 146 35z
m-181 -78 c21 -69 55 -98 118 -98 31 0 61 6 74 16 27 19 52 65 52 97 0 28 22
41 39 24 12 -12 16 -153 5 -181 -9 -24 -329 -24 -338 0 -11 29 -7 169 6 182
19 19 30 9 44 -40z"/>
<path d="M908 615 c-31 -17 -68 -73 -68 -104 0 -29 17 -61 33 -61 8 0 12 18
12 54 0 56 28 107 48 87 8 -8 5 -253 -4 -291 -7 -26 14 -24 34 2 16 21 20 49
24 155 7 169 -7 197 -79 158z"/>
<path d="M1467 624 c-4 -4 -7 -18 -7 -31 0 -14 -7 -26 -17 -29 -46 -15 -47
-17 -15 -26 31 -8 32 -10 32 -67 0 -44 -5 -65 -20 -82 l-20 -24 -6 22 c-3 13
-22 32 -41 44 -24 15 -32 26 -27 38 18 44 17 51 -8 51 -33 0 -48 -18 -48 -58
0 -36 -47 -114 -65 -108 -5 1 -12 36 -15 76 -7 105 -44 122 -95 42 -24 -38
-35 -40 -35 -8 0 35 -10 56 -26 56 -12 0 -14 -19 -12 -102 3 -107 17 -136 39
-81 41 97 59 133 68 133 7 0 11 -25 11 -63 0 -116 45 -126 116 -27 30 42 39
48 55 40 24 -14 42 -47 35 -67 -5 -11 -15 -14 -40 -9 -37 7 -59 -9 -35 -25 36
-23 149 8 149 41 0 19 21 10 32 -15 16 -36 53 -43 83 -15 l24 22 27 -21 c32
-25 47 -26 84 -4 26 15 29 15 45 0 19 -20 38 -21 65 -5 15 10 24 9 45 -2 20
-11 33 -12 56 -3 40 16 36 3 -16 -49 -48 -49 -54 -67 -29 -92 24 -24 34 -19
27 15 -5 24 0 36 22 59 16 16 32 27 37 23 15 -9 -2 -76 -25 -101 l-22 -24 34
14 c40 16 59 57 60 127 1 32 9 53 30 80 15 20 36 51 45 69 10 20 24 32 36 32
18 0 19 -5 14 -40 -9 -53 1 -86 31 -106 21 -13 30 -14 53 -5 22 9 35 9 56 0
23 -11 33 -10 62 6 33 18 35 18 54 0 18 -16 25 -17 52 -7 23 8 34 9 39 1 3 -6
15 -9 25 -7 14 2 21 15 25 53 4 28 11 61 17 75 l10 25 11 -28 c6 -16 11 -43
11 -62 0 -30 13 -45 39 -45 4 0 13 25 20 56 14 59 34 69 39 18 5 -57 13 -75
36 -85 34 -16 66 4 65 39 0 27 0 27 -10 4 -5 -15 -16 -22 -26 -20 -15 3 -19
17 -23 82 -4 58 -9 82 -21 89 -25 16 -44 3 -59 -42 -14 -44 -30 -46 -30 -2 0
56 -41 68 -66 19 l-17 -33 -9 33 c-9 34 -32 43 -42 16 -3 -9 -6 -41 -6 -73 0
-66 -22 -110 -46 -90 -10 8 -14 34 -14 89 0 88 1 86 -79 85 -47 0 -56 -4 -74
-27 -14 -18 -22 -48 -25 -88 -5 -65 -14 -79 -39 -59 -13 11 -14 27 -9 86 l6
73 -40 0 c-22 0 -40 4 -40 9 0 5 -7 11 -15 15 -22 8 -43 -19 -38 -48 5 -26
-19 -90 -37 -101 -6 -4 -10 19 -10 59 0 41 -5 68 -12 72 -7 5 -36 9 -64 11
-69 4 -94 -21 -101 -106 -4 -46 -11 -64 -25 -72 -15 -8 -20 -5 -29 18 -5 15
-9 53 -8 84 1 30 0 60 -4 65 -3 5 -32 10 -63 9 -55 0 -59 -2 -81 -34 -13 -19
-23 -49 -23 -66 0 -18 -8 -43 -19 -56 -16 -20 -21 -21 -35 -10 -20 17 -24 169
-3 175 6 3 25 7 40 10 35 8 26 26 -13 26 -25 0 -31 5 -38 32 -8 31 -30 47 -45
32z m233 -149 c17 -20 7 -102 -14 -123 -26 -26 -50 -4 -54 48 -5 72 34 116 68
75z m228 3 c26 -26 8 -130 -24 -142 -22 -9 -44 23 -44 64 0 72 35 111 68 78z
m406 -4 c9 -24 7 -80 -4 -108 -7 -18 -17 -26 -34 -26 -21 0 -26 6 -32 35 -7
37 1 82 18 102 15 18 45 16 52 -3z"/>
</g>
</svg>
